<svg id="Calque_1" data-name="Calque 1" xmlns="http://www.w3.org/2000/svg" viewBox="0 0 180 180"><defs><style>.cls-1{fill:#00a6e2;}</style></defs><path class="cls-1" d="M119.75,50.4C92.07,21.52,45,37.24,38,78A29.09,29.09,0,0,0,15.77,96.14l0,0C7.51,116.45,21.56,139,42.17,139h87.21c23.25,0,42.16-20.14,42.16-44.9C171.54,65.36,146.3,43.79,119.75,50.4Zm9.63,78.1H42.17c-21.39,0-26.11-32.33-5.78-39.3,4.56-1.54,13.29-2.42,23,7.2a4.75,4.75,0,0,0,7-.26,5.51,5.51,0,0,0-.25-7.44c-5.54-5.5-11.76-9-18.07-10.35C54.85,45.74,93.57,35,114.54,59.82a4.75,4.75,0,0,0,5.16,1.5c20.78-7,42,9.67,42,32.81C161.65,113.08,147.18,128.5,129.38,128.5Z"/></svg>