<svg id="Calque_1" data-name="Calque 1" xmlns="http://www.w3.org/2000/svg" viewBox="0 0 32 32"><defs><style>.cls-1{fill:#00a6e2;}</style></defs><path class="cls-1" d="M21.31,7.47C15.94,1.88,6.8,4.92,5.45,12.82a5.62,5.62,0,0,0-4.31,3.51h0c-1.6,3.93,1.13,8.3,5.13,8.3H23.18a8.46,8.46,0,0,0,8.18-8.69C31.36,10.37,26.46,6.19,21.31,7.47Zm1.87,15.12H6.26c-4.15,0-5.07-6.26-1.12-7.61.88-.3,2.58-.47,4.46,1.4A.91.91,0,0,0,11,16.32a1.06,1.06,0,0,0,0-1.44,7.17,7.17,0,0,0-3.5-2c1.32-6.31,8.83-8.4,12.9-3.59a.91.91,0,0,0,1,.29c4-1.34,8.14,1.88,8.14,6.36A6.47,6.47,0,0,1,23.18,22.59Z"/></svg>