<svg id="Calque_1" data-name="Calque 1" xmlns="http://www.w3.org/2000/svg" viewBox="0 0 180 180"><defs><style>.cls-1{fill:#00a6e2;}</style></defs><path class="cls-1" d="M120.37,39.59C89.58,5.92,37.2,24.24,29.45,71.8,18.51,73.56,9.13,81.56,4.7,92.93v0c-9.18,23.64,6.45,50,29.38,50h97c25.86,0,46.9-23.49,46.9-52.37C178,57,149.91,31.88,120.37,39.59Zm10.71,91.08h-97c-23.79,0-29-37.71-6.43-45.84,5.07-1.78,14.78-2.82,25.57,8.4a5.11,5.11,0,0,0,7.77-.3,6.66,6.66,0,0,0-.28-8.68c-6.16-6.41-13.08-10.49-20.1-12.07,7.58-38,50.65-50.59,74-21.61a5.14,5.14,0,0,0,5.74,1.76C143.43,44.22,167,63.6,167,90.58,167,112.69,150.88,130.67,131.08,130.67Z"/></svg>