<svg id="Calque_1" data-name="Calque 1" xmlns="http://www.w3.org/2000/svg" viewBox="0 0 16 16"><defs><style>.cls-1{fill:#00a6e2;}</style></defs><path class="cls-1" d="M10.68,4C8,1,3.34,2.62,2.66,6.81A2.89,2.89,0,0,0,.48,8.68h0c-.81,2.08.57,4.4,2.59,4.4h8.55a4.4,4.4,0,0,0,4.14-4.61C15.76,5.51,13.28,3.3,10.68,4Zm.94,8H3.07C1,12,.51,8.68,2.5,8a2.07,2.07,0,0,1,2.26.74.45.45,0,0,0,.68,0,.6.6,0,0,0,0-.77A3.67,3.67,0,0,0,3.64,6.85c.67-3.35,4.47-4.46,6.53-1.91a.45.45,0,0,0,.5.16c2-.72,4.12,1,4.12,3.37A3.36,3.36,0,0,1,11.62,12Z"/></svg>