<svg id="Calque_1" data-name="Calque 1" xmlns="http://www.w3.org/2000/svg" viewBox="0 0 200 50"><defs><style>.cls-1{fill:#00a6e2;}.cls-2{font-size:21px;fill:#16233b;font-family:Poppins-Medium, Poppins;font-weight:500;}</style></defs><path class="cls-1" d="M34.16,18.09C29.42,13,21.35,15.78,20.16,23a5,5,0,0,0-3.82,3.19h0c-1.41,3.56,1,7.53,4.53,7.53H35.81c4,0,7.23-3.54,7.23-7.9C43,20.72,38.71,16.93,34.16,18.09Zm1.65,13.74H20.87c-3.67,0-4.48-5.69-1-6.91.78-.27,2.28-.43,3.94,1.26a.79.79,0,0,0,1.19,0,1,1,0,0,0,0-1.31A6.28,6.28,0,0,0,21.88,23c1.16-5.74,7.8-7.63,11.39-3.26a.79.79,0,0,0,.88.26c3.57-1.22,7.19,1.7,7.19,5.77A5.81,5.81,0,0,1,35.81,31.83Z"/><text class="cls-2" transform="translate(49.93 31.83)">CloudSquish</text></svg>